<svg width="3702" height="1235" viewBox="0 0 3702 1235" fill="none" xmlns="http://www.w3.org/2000/svg">
<g clip-path="url(#clip0_90_6384)">
<path d="M681.785 316.104L679.934 319.806C744.102 347.571 780.505 404.952 780.505 467.886C780.505 535.756 736.081 597.456 649.701 649.901L635.51 658.539C570.725 698.027 538.024 742.451 538.024 796.13C538.024 865.234 592.32 915.827 666.977 915.827C786.675 915.827 925.5 788.109 925.5 617.817C925.5 590.052 921.798 562.904 915.011 536.99L910.692 538.224C912.543 552.415 913.16 562.904 913.16 572.776C913.16 673.347 856.396 759.727 761.378 817.108L752.123 822.661C731.762 834.384 714.486 841.171 697.21 841.171C674.381 841.171 657.105 826.363 657.105 804.768C657.105 786.258 669.445 767.748 709.55 744.302L721.273 737.515C810.121 685.687 859.481 612.881 859.481 532.054C859.481 429.632 782.973 345.103 681.785 316.104ZM552.215 918.912L554.066 915.21C489.898 887.446 453.495 830.065 453.495 767.131C453.495 699.261 497.919 637.561 584.299 585.116L598.49 576.478C663.275 536.99 695.976 492.566 695.976 438.887C695.976 369.783 641.68 319.189 567.023 319.189C447.325 319.189 308.5 446.908 308.5 617.2C308.5 644.965 312.202 672.113 318.989 698.027L323.308 696.793C321.457 682.602 320.84 672.113 320.84 662.241C320.84 561.67 377.604 475.29 472.622 417.909L481.877 412.356C502.238 400.633 519.514 393.846 536.79 393.846C559.619 393.846 576.895 408.654 576.895 430.249C576.895 448.759 564.555 467.269 524.45 490.715L512.727 497.502C423.879 549.33 374.519 622.136 374.519 702.963C374.519 805.385 451.027 889.914 552.215 918.912Z" fill="#4D3DFF"/>
</g>
<g clip-path="url(#clip1_90_6384)">
<g clip-path="url(#clip2_90_6384)">
<path d="M1234 756.648H1242.91C1274.89 756.648 1284.33 747.211 1284.33 709.987V498.178C1284.33 460.954 1274.89 451.517 1242.91 451.517H1234V420.584H1399.15V451.517H1390.76C1358.78 451.517 1349.34 460.954 1349.34 498.178V709.987C1349.34 747.211 1358.78 756.648 1390.76 756.648H1399.15V787.581H1234V756.648Z" fill="#4D3DFF"/>
<path d="M1516.06 519.674H1530.74V566.335H1531.27C1550.14 535.402 1582.12 516.004 1624.07 516.004C1672.3 516.004 1707.43 542.742 1707.43 616.666V716.804C1707.43 750.882 1715.29 759.271 1742.03 759.271H1749.37V787.582H1610.96V759.271H1617.77C1641.89 759.271 1648.71 750.882 1648.71 716.804V616.666C1648.71 575.772 1623.54 561.616 1595.75 561.616C1564.82 561.616 1530.22 583.636 1530.22 643.929V716.804C1530.22 750.882 1537.56 759.271 1561.15 759.271H1567.97V787.582H1430.08V759.271H1436.9C1463.64 759.271 1471.5 750.882 1471.5 716.804V579.442L1433.75 567.908V550.082L1516.06 519.674Z" fill="#4D3DFF"/>
<path d="M1802.84 777.096V579.441L1765.09 567.907V550.082L1847.93 519.673H1861.56V751.406C1861.56 824.805 1820.67 873.563 1738.35 889.816L1736.78 883.525C1769.29 864.651 1802.84 831.621 1802.84 777.096ZM1792.36 436.837C1792.36 412.72 1810.7 393.846 1834.3 393.846C1857.89 393.846 1876.24 412.72 1876.76 436.837C1876.76 460.429 1858.41 478.779 1834.82 478.779C1811.23 478.779 1792.36 460.429 1792.36 436.837Z" fill="#4D3DFF"/>
<path d="M2052.4 514.953C2120.03 514.953 2161.97 559.517 2161.97 628.198V631.868H1975.85C1976.37 700.549 2010.98 740.394 2073.37 740.394C2121.6 740.394 2144.15 716.277 2157.25 692.685L2166.16 695.306C2154.63 746.161 2116.88 794.919 2045.06 794.919C1965.37 794.919 1918.18 734.627 1918.18 658.606C1918.18 576.818 1972.18 514.953 2052.4 514.953ZM2099.06 605.13C2096.44 565.284 2077.56 543.789 2043.48 543.789C2016.22 543.789 1985.81 556.896 1977.95 605.13H2099.06Z" fill="#4D3DFF"/>
<path d="M2205.48 664.373C2205.48 577.343 2276.78 514.953 2364.86 514.953C2395.79 514.953 2421.48 522.817 2439.83 530.682L2440.35 612.469L2425.15 614.567L2381.64 544.313C2373.77 542.216 2365.91 541.167 2358.57 541.167C2316.1 541.167 2263.15 573.148 2263.15 641.829C2263.15 697.927 2296.18 740.918 2357.52 740.918C2404.7 740.918 2427.77 716.277 2441.4 692.685L2450.32 695.83C2438.78 746.161 2401.03 794.919 2330.26 794.919C2252.14 794.919 2205.48 734.627 2205.48 664.373Z" fill="#4D3DFF"/>
<path d="M2496.46 708.94V529.635L2539.45 458.857H2555.7V525.441H2638.54V560.568H2555.7V695.833C2555.7 731.484 2570.38 749.834 2599.22 749.834C2611.28 749.834 2628.58 746.688 2645.88 727.29L2652.7 731.484C2635.4 770.281 2607.61 792.825 2568.29 792.825C2526.34 792.825 2496.46 765.038 2496.46 708.94Z" fill="#4D3DFF"/>
<path d="M2675.77 759.27H2683.11C2709.84 759.27 2717.71 750.881 2717.71 716.803V579.966L2679.96 567.907V550.082L2764.89 519.149H2776.43V716.803C2776.43 750.881 2784.29 759.27 2811.03 759.27H2817.85V787.581H2675.77V759.27ZM2704.08 436.837C2704.08 412.72 2722.43 393.846 2746.02 393.846C2769.61 393.846 2787.96 412.72 2788.49 436.837C2789.01 460.429 2770.14 478.779 2746.02 478.779C2721.9 478.779 2704.08 460.429 2704.08 436.837Z" fill="#4D3DFF"/>
<path d="M2835.14 553.751H2828.85V525.439H2970.4V553.751H2963.06C2936.33 553.751 2928.99 562.139 2942.62 593.072L2996.09 713.657L3048 593.072C3061.1 562.139 3053.76 553.751 3027.03 553.751H3020.21V525.439H3136.08V553.751H3129.79C3104.62 553.751 3096.76 562.139 3083.12 593.072L2998.19 789.153H2966.73L2878.65 593.072C2864.5 562.139 2857.68 553.751 2835.14 553.751Z" fill="#4D3DFF"/>
<path d="M3279.73 514.953C3347.36 514.953 3389.31 559.517 3389.31 628.198V631.868H3203.19C3203.71 700.549 3238.31 740.394 3300.7 740.394C3348.94 740.394 3371.48 716.277 3384.59 692.685L3393.5 695.306C3381.97 746.161 3344.22 794.919 3272.39 794.919C3192.7 794.919 3145.52 734.627 3145.52 658.606C3145.52 576.818 3199.52 514.953 3279.73 514.953ZM3326.39 605.13C3323.77 565.284 3304.9 543.789 3270.82 543.789C3243.56 543.789 3213.15 556.896 3205.28 605.13H3326.39Z" fill="#4D3DFF"/>
</g>
</g>
<defs>
<clipPath id="clip0_90_6384">
<rect width="617" height="617" fill="white" transform="translate(308.5 308.699)"/>
</clipPath>
<clipPath id="clip1_90_6384">
<rect width="2159.5" height="617" fill="white" transform="translate(1234 308.699)"/>
</clipPath>
<clipPath id="clip2_90_6384">
<rect width="2159.5" height="495.97" fill="white" transform="translate(1234 393.846)"/>
</clipPath>
</defs>
</svg>
